<svg xmlns="http://www.w3.org/2000/svg" viewBox="0 0 400 300" width="406" height="306" class="illustration styles_illustrationTablet__1DWOa"><g id="_471_3d_model_flatline" data-name="#471_3d_model_flatline"><polygon points="101.25 216.88 101.25 101 199.67 41.95 199.67 160.43 101.25 216.88" fill="#e6e7e8"></polygon><path d="M101.26,217.38a.59.59,0,0,1-.26-.07.51.51,0,0,1-.24-.43V101a.52.52,0,0,1,.24-.43l98.41-59a.52.52,0,0,1,.51,0,.48.48,0,0,1,.25.43V160.42a.5.5,0,0,1-.25.44L101.5,217.31A.51.51,0,0,1,101.26,217.38Zm.5-116.09V216l97.41-55.87V42.84Z" fill="#231f20"></path><polygon points="199.67 160.43 300.69 216.88 300.69 99.89 199.67 41.95 199.67 160.43" fill="#fff"></polygon><path d="M300.69,217.38a.55.55,0,0,1-.25-.07l-101-56.45a.5.5,0,0,1-.26-.44V42a.5.5,0,0,1,.25-.43.5.5,0,0,1,.5,0l101,57.94a.49.49,0,0,1,.25.43v117a.52.52,0,0,1-.25.43A.55.55,0,0,1,300.69,217.38ZM200.17,160.13l100,55.89V100.18l-100-57.36Z" fill="#231f20"></path><polygon points="101.25 216.88 199.67 275.55 300.69 216.88 199.67 160.43 101.25 216.88" fill="#fff"></polygon><path d="M199.67,276.05a.43.43,0,0,1-.25-.07L101,217.3a.47.47,0,0,1-.24-.43.48.48,0,0,1,.25-.43L199.42,160a.5.5,0,0,1,.5,0l101,56.45a.49.49,0,0,1,.26.43.52.52,0,0,1-.25.44L199.92,276A.51.51,0,0,1,199.67,276.05Zm-97.42-59.17L199.68,275l100-58.09L199.68,161Z" fill="#231f20"></path><polygon points="200.97 216.88 200.97 158.01 250.18 129.41 250.18 188.65 200.97 216.88" fill="#68e1fd"></polygon><path d="M201,217.38a.59.59,0,0,1-.25-.07.52.52,0,0,1-.25-.43V158a.5.5,0,0,1,.25-.43L249.93,129a.5.5,0,0,1,.5,0,.52.52,0,0,1,.25.43v59.24a.5.5,0,0,1-.25.43l-49.21,28.23A.55.55,0,0,1,201,217.38Zm.5-59.08V216l48.21-27.65V130.28Z" fill="#231f20"></path><polygon points="200.97 216.88 150.46 188.65 150.46 129.41 200.97 158.01 200.97 216.88" fill="#68e1fd"></polygon><path d="M201,217.38a.51.51,0,0,1-.24-.07l-50.51-28.22a.51.51,0,0,1-.26-.44V129.41a.52.52,0,0,1,.25-.43.5.5,0,0,1,.5,0l50.51,28.6a.47.47,0,0,1,.25.43v58.87a.5.5,0,0,1-.25.43A.52.52,0,0,1,201,217.38Zm-50-29L200.47,216V158.3l-49.51-28Z" fill="#231f20"></path><polygon points="150.46 129.41 199.67 100.63 250.18 129.41 200.97 158.01 150.46 129.41" fill="#68e1fd"></polygon><path d="M201,158.51a.5.5,0,0,1-.24-.06l-50.51-28.6a.51.51,0,0,1-.26-.43.52.52,0,0,1,.25-.44l49.21-28.78a.5.5,0,0,1,.5,0L250.43,129a.5.5,0,0,1,0,.87l-49.21,28.59A.43.43,0,0,1,201,158.51Zm-49.5-29.1,49.5,28,48.21-28-49.5-28.21Z" fill="#231f20"></path><polygon points="200.97 216.88 133.32 235.99 101.25 216.88 150.46 188.65 200.97 216.88" fill="#231f20"></polygon><path d="M133.32,236.49a.48.48,0,0,1-.26-.07L101,217.3a.5.5,0,0,1-.24-.43.48.48,0,0,1,.25-.43l49.21-28.22a.48.48,0,0,1,.49,0l50.5,28.22a.5.5,0,0,1,.26.49.51.51,0,0,1-.36.42l-67.66,19.12Zm-31.08-19.61,31.15,18.58,66.29-18.74-49.21-27.5Z" fill="#231f20"></path><path d="M287.26,153.26a.68.68,0,0,1-.27-.07l-21.77-12a.54.54,0,0,1-.29-.48V103.9a.55.55,0,0,1,.28-.48.56.56,0,0,1,.56,0L287.54,116a.56.56,0,0,1,.28.48V152.7a.56.56,0,0,1-.28.48A.54.54,0,0,1,287.26,153.26ZM266,140.36l20.67,11.4v-35L266,104.86Z" fill="#d1d3d4"></path></g></svg>