<svg id="Layer_1" data-name="Layer 1" xmlns="http://www.w3.org/2000/svg" viewBox="0 0 400 300" width="406" height="306" class="illustration styles_illustrationTablet__1DWOa"><title>_</title><polygon points="183.37 157.87 176.24 203.14 223.77 203.14 212.84 157.87 183.37 157.87" fill="#c9c9c9"></polygon><ellipse cx="200" cy="230.79" rx="148.51" ry="29.25" fill="#e6e6e6" opacity="0.24"></ellipse><rect x="165.39" y="195.2" width="66.85" height="14.55" fill="#e6e6e6"></rect><polygon points="261.61 221.92 202.44 221.92 196.22 221.92 137.05 221.92 122.6 260.04 196.22 260.04 202.44 260.04 276.06 260.04 261.61 221.92" fill="#e6e6e6"></polygon><polygon points="225.87 228.27 194.6 228.27 189.87 228.27 142.13 228.27 133.99 253.69 189.87 253.69 194.6 253.69 235.03 253.69 225.87 228.27" fill="#c9c9c9"></polygon><polygon points="232.24 228.27 242.16 253.69 266.6 253.69 256.17 228.27 232.24 228.27" fill="#c9c9c9" opacity="0.42"></polygon><polygon points="122.6 260.04 127.88 267.13 269.86 267.13 276.06 260.04 122.6 260.04" fill="#c9c9c9"></polygon><path d="M88.91,212.15s-14.15-3.86-17.23-17c0,0,21.92-4.44,22.55,18.2Z" fill="#68e1fd" opacity="0.58"></path><path d="M90.64,210.75s-9.89-15.63-1.18-30.25c0,0,16.67,10.59,9.26,30.28Z" fill="#68e1fd" opacity="0.73"></path><path d="M93.19,210.76s5.22-16.51,21-19.64c0,0,3,10.72-10.23,19.68Z" fill="#68e1fd"></path><polygon points="82.93 210.39 85.79 230.01 103.86 230.09 106.53 210.49 82.93 210.39" fill="#24285b"></polygon><rect x="88.35" y="32.87" width="217.42" height="141.26" fill="#e6e6e6"></rect><rect x="96.15" y="40.2" width="200.87" height="113.15" fill="#68e1fd"></rect><rect x="96.14" y="40.2" width="200.87" height="14.91" fill="#24285b"></rect><circle cx="104.69" cy="47.05" r="3.28" fill="#fff"></circle><circle cx="114.46" cy="47.05" r="3.28" fill="#68e1fd"></circle><circle cx="123.66" cy="47.05" r="3.28" fill="#ffd200"></circle><circle cx="199.57" cy="163.08" r="4.11" fill="#a5a5a5"></circle><rect x="96.15" y="55.11" width="34.37" height="98.24" fill="#ffd200"></rect><rect x="262.64" y="55.11" width="34.38" height="98.24" fill="#ffd200"></rect><polygon points="194.66 104.84 232.95 82.59 232.84 122.05 194.55 144.3 194.66 104.84" opacity="0.1"></polygon><polygon points="160.32 85.01 198.61 62.76 232.95 82.59 194.66 104.84 160.32 85.01" fill="#fff" opacity="0.44"></polygon><polygon points="194.66 104.84 194.55 144.3 160.21 124.47 160.32 85.01 194.66 104.84" opacity="0.2"></polygon><rect x="104.57" y="65.92" width="17.45" height="15.69" fill="#fff" opacity="0.44"></rect><polygon points="122.02 145.23 106.33 145.23 106.33 129.54 122.02 145.23" fill="#fff" opacity="0.44"></polygon><polygon points="117.68 96.84 107.6 96.84 102.56 105.57 107.6 114.31 117.68 114.31 122.72 105.57 117.68 96.84" fill="#fff" opacity="0.44"></polygon><rect x="269.73" y="73.84" width="20.2" height="3.58" fill="#fff" opacity="0.44"></rect><rect x="269.73" y="82.39" width="6.44" height="1.79" opacity="0.1"></rect><rect x="279.09" y="82.39" width="10.83" height="1.79" opacity="0.1"></rect><rect x="269.73" y="89.15" width="11.81" height="1.79" opacity="0.1"></rect><rect x="285.61" y="89.15" width="4.32" height="1.79" opacity="0.1"></rect><rect x="269.77" y="95.87" width="3.46" height="1.79" opacity="0.1"></rect><rect x="275.18" y="95.87" width="14.78" height="1.79" opacity="0.1"></rect><rect x="269.77" y="102.63" width="16.82" height="1.79" opacity="0.1"></rect><rect x="269.73" y="114.57" width="20.2" height="3.58" fill="#fff" opacity="0.44"></rect><rect x="269.73" y="123.12" width="6.44" height="1.79" opacity="0.1"></rect><rect x="279.09" y="123.12" width="10.83" height="1.79" opacity="0.1"></rect><rect x="269.73" y="129.88" width="11.81" height="1.79" opacity="0.1"></rect><rect x="285.61" y="129.88" width="4.32" height="1.79" opacity="0.1"></rect><rect x="269.77" y="136.6" width="3.46" height="1.79" opacity="0.1"></rect><rect x="275.18" y="136.6" width="14.78" height="1.79" opacity="0.1"></rect><rect x="269.77" y="143.36" width="16.82" height="1.79" opacity="0.1"></rect><polygon points="138.74 69.54 143.39 65.24 142.74 64.53 138 68.92 138 61.06 137.04 61.06 137.04 70.5 146.97 70.5 146.97 69.54 138.74 69.54" fill="#fff" opacity="0.44"></polygon></svg>